<?xml version="1.0" encoding="UTF-8" standalone="no"?>
<!-- Generated by IcoMoon.io -->

<svg
   xmlns:dc="http://purl.org/dc/elements/1.1/"
   xmlns:cc="http://creativecommons.org/ns#"
   xmlns:rdf="http://www.w3.org/1999/02/22-rdf-syntax-ns#"
   xmlns:svg="http://www.w3.org/2000/svg"
   xmlns="http://www.w3.org/2000/svg"
   xmlns:sodipodi="http://sodipodi.sourceforge.net/DTD/sodipodi-0.dtd"
   xmlns:inkscape="http://www.inkscape.org/namespaces/inkscape"
   version="1.1"
   width="108"
   height="32"
   viewBox="0 0 108 32"
   id="svg3484"
   inkscape:version="0.91 r13725"
   sodipodi:docname="icon-dietafarma-logo-full-white.svg">
  <metadata
     id="metadata3494">
    <rdf:RDF>
      <cc:Work
         rdf:about="">
        <dc:format>image/svg+xml</dc:format>
        <dc:type
           rdf:resource="http://purl.org/dc/dcmitype/StillImage" />
        <dc:title>heart</dc:title>
      </cc:Work>
    </rdf:RDF>
  </metadata>
  <defs
     id="defs3492" />
  <sodipodi:namedview
     pagecolor="#ffffff"
     bordercolor="#666666"
     borderopacity="1"
     objecttolerance="10"
     gridtolerance="10"
     guidetolerance="10"
     inkscape:pageopacity="0"
     inkscape:pageshadow="2"
     inkscape:window-width="1082"
     inkscape:window-height="740"
     id="namedview3490"
     showgrid="false"
     inkscape:zoom="6.55"
     inkscape:cx="18.447485"
     inkscape:cy="17.278851"
     inkscape:window-x="78"
     inkscape:window-y="11"
     inkscape:window-maximized="0"
     inkscape:current-layer="svg3484" />
  <title
     id="title3486">heart</title>
  <path
     d="m 21.684943,0.77085155 c -2.301912,0 -4.283489,1.77136335 -5.20138,3.62171345 -0.918573,-1.8503501 -2.900149,-3.62171345 -5.202747,-3.62171345 -3.1739426,0 -5.7496483,2.43691975 -5.7496483,5.43904375 0,6.1071917 6.5135303,7.7082807 10.9523953,13.7461957 4.195877,-6.000364 10.951029,-7.83388 10.951029,-13.7461957 0,-3.002124 -2.575705,-5.43904375 -5.749649,-5.43904375 z"
     id="path3488"
     inkscape:connector-curvature="0"
     style="stroke-width:5;stroke-miterlimit:4;stroke-dasharray:none;fill:#ffffff"
     mask="none" />
  <path
     inkscape:connector-curvature="0"
     d="m 12.648342,17.998244 c -1.632977,0 -2.956508,1.336902 -2.956508,2.986062 0,1.411981 0.970227,2.594888 2.27454,2.905865 l -0.489301,6.906762 c -0.03302,0.468386 0.38336,0.851455 0.925386,0.851455 l 0.492751,0 c 0.542026,0 0.958401,-0.383069 0.925386,-0.851455 l -0.489301,-6.906762 c 1.303818,-0.310977 2.27454,-1.493884 2.27454,-2.905865 0,-1.64916 -1.32353,-2.986062 -2.956507,-2.986062 z m 9.937313,0 -0.821416,4.265804 -0.61594,0 -0.410462,-4.265804 -0.41046,0 -0.410462,4.265804 -0.615939,0 -0.821417,-4.265804 -0.410462,0 0,5.545544 c 0,0.235473 0.220753,0.426581 0.492751,0.426581 l 1.283124,0 -0.483879,6.826991 c -0.03302,0.468385 0.383358,0.851454 0.925384,0.851454 l 0.492752,0 c 0.542027,0 0.958401,-0.383069 0.925388,-0.851454 l -0.483883,-6.826991 1.283125,0 c 0.271998,0 0.492751,-0.191108 0.492751,-0.426581 l 0,-5.545544 -0.410463,0 z"
     id="path3562" />
  <text
     xml:space="preserve"
     style="font-style:normal;font-weight:normal;font-size:13.75px;line-height:125%;font-family:sans-serif;letter-spacing:0px;word-spacing:0px;fill:#000000;fill-opacity:1;stroke:none;stroke-width:1px;stroke-linecap:butt;stroke-linejoin:miter;stroke-opacity:1"
     x="25.373133"
     y="20.674276"
     id="text3457"
     sodipodi:linespacing="125%"><tspan
       sodipodi:role="line"
       id="tspan3459"
       x="25.373133"
       y="20.674276"
       style="font-style:normal;font-variant:normal;font-weight:normal;font-stretch:normal;font-size:13.75px;font-family:'Heiti SC';-inkscape-font-specification:'Heiti SC';fill:#ffffff">dietafarma</tspan></text>
  <path
     style="fill:#ffffff;stroke-width:5;stroke-miterlimit:4;stroke-dasharray:none"
     d="m 12.046708,31.539632 c -0.09658,-0.03953 -0.24992,-0.154515 -0.340764,-0.255526 -0.207356,-0.230563 -0.205256,-0.345114 0.07752,-4.228839 0.120641,-1.65694 0.219348,-3.055971 0.219348,-3.108956 0,-0.05299 -0.191311,-0.164285 -0.425136,-0.247332 -0.616749,-0.21905 -1.184489,-0.759442 -1.525106,-1.451642 -0.2555916,-0.519413 -0.2880323,-0.666855 -0.2839113,-1.290374 0.006,-0.907838 0.2790303,-1.513938 0.9639843,-2.139947 0.86609,-0.791558 2.028681,-0.979491 3.091721,-0.499777 1.744698,0.787323 2.274234,3.012522 1.076709,4.524519 -0.29217,0.368896 -0.96437,0.833662 -1.339876,0.926405 -0.186931,0.04617 -0.241711,0.111992 -0.242641,0.291554 -6.59e-4,0.127557 0.103505,1.699177 0.231479,3.492488 0.127975,1.793312 0.206472,3.364994 0.174438,3.492627 -0.08444,0.336441 -0.533915,0.578219 -1.063189,0.571906 -0.241439,-0.0029 -0.517998,-0.03758 -0.614574,-0.07711 z"
     id="path3480"
     inkscape:connector-curvature="0" />
  <path
     style="fill:#ffffff;stroke-width:5;stroke-miterlimit:4;stroke-dasharray:none"
     d="m 19.850303,31.483624 c -0.48091,-0.237249 -0.484041,-0.280697 -0.253797,-3.521859 0.115952,-1.632266 0.233781,-3.214683 0.261842,-3.516483 l 0.05102,-0.548727 -0.775052,0 c -0.485757,0 -0.814378,-0.03932 -0.880408,-0.105355 -0.0776,-0.0776 -0.105356,-0.854031 -0.105356,-2.947614 0,-2.649273 0.01033,-2.840269 0.152184,-2.812951 0.125274,0.02413 0.223472,0.401752 0.555315,2.135498 l 0.403131,2.10619 0.349976,0.02619 0.349976,0.02619 0.107122,-1.16754 c 0.280061,-3.052455 0.293183,-3.142957 0.455689,-3.142957 0.179686,0 0.196419,0.09579 0.391118,2.238806 0.198273,2.182358 0.16609,2.063214 0.557308,2.063214 l 0.328789,0 0.376775,-1.997367 c 0.457728,-2.426514 0.424324,-2.304653 0.631738,-2.304653 0.16412,0 0.169676,0.09074 0.169676,2.771356 0,1.742469 -0.03374,2.834403 -0.09089,2.941176 -0.07948,0.14851 -0.189658,0.169821 -0.877963,0.169821 l -0.787078,0 -1.14e-4,0.373135 c -6.5e-5,0.205223 0.101372,1.772244 0.225416,3.482267 0.124044,1.710023 0.202053,3.202689 0.173354,3.317035 -0.121632,0.48462 -1.1429,0.723889 -1.769773,0.414632 l -3e-6,0 z"
     id="path3482"
     inkscape:connector-curvature="0" />
  <path
     style="fill:#ffffff;stroke-width:5;stroke-miterlimit:4;stroke-dasharray:none"
     d="m 13.504168,26.969426 c 0,-0.169008 0.01807,-0.238147 0.04015,-0.153643 0.02208,0.0845 0.02208,0.222783 0,0.307287 -0.02208,0.0845 -0.04015,0.01536 -0.04015,-0.153644 z"
     id="path4288"
     inkscape:connector-curvature="0" />
  <path
     style="fill:#ffffff;stroke-width:5;stroke-miterlimit:4;stroke-dasharray:none"
     d="m 19.827565,31.427894 c -0.319958,-0.154338 -0.378362,-0.575036 -0.283139,-2.039511 0.155596,-2.392977 0.349322,-5.004959 0.388502,-5.238142 l 0.03851,-0.229193 -0.807472,-0.06081 c -0.444109,-0.03345 -0.837668,-0.09089 -0.874574,-0.127637 -0.03691,-0.03675 -0.05666,-1.328549 -0.0439,-2.870659 0.0273,-3.298442 0.05361,-3.31626 0.618382,-0.418815 l 0.362212,1.858244 0.375162,0.02984 0.375162,0.02984 0.04519,-0.351646 c 0.02485,-0.193406 0.10647,-1.023289 0.181368,-1.844184 0.165558,-1.814565 0.209473,-2.080268 0.336807,-2.037823 0.118431,0.03948 0.175736,0.420307 0.359483,2.389008 0.07662,0.820896 0.160757,1.561677 0.186978,1.646181 0.03463,0.111604 0.140525,0.153644 0.387026,0.153644 0.404332,0 0.338951,0.173521 0.743493,-1.973229 0.403103,-2.139115 0.468028,-2.381596 0.601792,-2.247572 0.137874,0.138142 0.142969,5.489351 0.0054,5.626962 -0.0511,0.0511 -0.435159,0.117059 -0.853469,0.14658 l -0.760562,0.05367 9.52e-4,0.535687 c 5.25e-4,0.294627 0.07911,1.661674 0.17464,3.037881 0.09553,1.376207 0.174116,2.769457 0.17464,3.096111 9.25e-4,0.576246 -0.0075,0.599091 -0.284385,0.767889 -0.318415,0.194141 -1.109367,0.231112 -1.448157,0.06769 z"
     id="path4290"
     inkscape:connector-curvature="0" />
  <path
     style="fill:#ffffff;stroke-width:5;stroke-miterlimit:4;stroke-dasharray:none"
     d=""
     id="path4292"
     inkscape:connector-curvature="0" />
  <path
     style="fill:#ffffff;stroke-width:5;stroke-miterlimit:4;stroke-dasharray:none"
     d=""
     id="path4294"
     inkscape:connector-curvature="0" />
  <path
     style="fill:#ffffff;stroke-width:5;stroke-miterlimit:4;stroke-dasharray:none"
     d="m 18.134732,23.726546 c -0.01847,-0.01847 -0.02899,-0.613576 -0.02338,-1.322451 l 0.0102,-1.288865 0.02758,1.309856 c 0.01517,0.720421 0.02569,1.315524 0.02338,1.322451 -0.0023,0.0069 -0.01931,-0.0025 -0.03778,-0.02099 z"
     id="path4296"
     inkscape:connector-curvature="0" />
  <path
     style="fill:#ffffff;stroke-width:5;stroke-miterlimit:4;stroke-dasharray:none"
     d="m 18.105124,22.068234 c 0.0024,-0.05869 0.01435,-0.07063 0.03044,-0.03044 0.01455,0.03637 0.01276,0.07982 -0.004,0.09656 -0.01674,0.01674 -0.02865,-0.01302 -0.02646,-0.06612 z"
     id="path4298"
     inkscape:connector-curvature="0" />
  <path
     style="fill:#ffffff;stroke-width:5;stroke-miterlimit:4;stroke-dasharray:none"
     d=""
     id="path4300"
     inkscape:connector-curvature="0" />
</svg>
