<?xml version="1.0" encoding="UTF-8" standalone="no"?>
<!-- Generated by IcoMoon.io -->

<svg
   xmlns:dc="http://purl.org/dc/elements/1.1/"
   xmlns:cc="http://creativecommons.org/ns#"
   xmlns:rdf="http://www.w3.org/1999/02/22-rdf-syntax-ns#"
   xmlns:svg="http://www.w3.org/2000/svg"
   xmlns="http://www.w3.org/2000/svg"
   xmlns:sodipodi="http://sodipodi.sourceforge.net/DTD/sodipodi-0.dtd"
   xmlns:inkscape="http://www.inkscape.org/namespaces/inkscape"
   version="1.1"
   width="32"
   height="32"
   viewBox="0 0 32 32"
   id="svg3484"
   inkscape:version="0.91 r13725"
   sodipodi:docname="icon-dietafarma-white.svg">
  <metadata
     id="metadata3494">
    <rdf:RDF>
      <cc:Work
         rdf:about="">
        <dc:format>image/svg+xml</dc:format>
        <dc:type
           rdf:resource="http://purl.org/dc/dcmitype/StillImage" />
        <dc:title>heart</dc:title>
      </cc:Work>
    </rdf:RDF>
  </metadata>
  <defs
     id="defs3492">
    <filter
       inkscape:label="Invert"
       inkscape:menu="Color"
       inkscape:menu-tooltip="Blend an image with its hue opposite"
       style="color-interpolation-filters:sRGB;"
       id="filter3335">
      <feColorMatrix
         type="hueRotate"
         values="180"
         result="fbSourceGraphic"
         in="SourceGraphic"
         id="feColorMatrix3337" />
      <feColorMatrix
         values="1 0 0 0 0 0 1 0 0 0 0 0 1 0 0 -0.2125 -0.7154 -0.0721 1 0 "
         in="SourceGraphic"
         result="result1"
         id="feColorMatrix3339" />
      <feColorMatrix
         type="hueRotate"
         values="0"
         id="feColorMatrix3341" />
      <feColorMatrix
         values="1 0 0 0 0 0 1 0 0 0 0 0 1 0 0 0 0 0 1 0 "
         result="result3"
         id="feColorMatrix3343" />
      <feComposite
         in2="result3"
         result="result6"
         operator="atop"
         id="feComposite3345" />
      <feComposite
         in2="result6"
         operator="arithmetic"
         k2="0.5"
         k1="0.5"
         k3="0.5"
         in="result6"
         result="result4"
         id="feComposite3347" />
      <feBlend
         in2="fbSourceGraphic"
         mode="normal"
         result="result2"
         in="result4"
         id="feBlend3349" />
      <feComposite
         in2="result2"
         operator="arithmetic"
         k2="1"
         result="result5"
         id="feComposite3351" />
      <feComposite
         in2="SourceGraphic"
         operator="in"
         result="fbSourceGraphic"
         id="feComposite3353" />
      <feColorMatrix
         result="fbSourceGraphicAlpha"
         in="fbSourceGraphic"
         values="0 0 0 -1 0 0 0 0 -1 0 0 0 0 -1 0 0 0 0 1 0"
         id="feColorMatrix3443" />
      <feColorMatrix
         id="feColorMatrix3445"
         values="0 0 1 0 0 0 1 0 0 0 1 0 0 0 0 -0.21 -0.72 -0.07 2 0 "
         result="fbSourceGraphic"
         in="fbSourceGraphic" />
      <feColorMatrix
         result="fbSourceGraphicAlpha"
         in="fbSourceGraphic"
         values="0 0 0 -1 0 0 0 0 -1 0 0 0 0 -1 0 0 0 0 1 0"
         id="feColorMatrix3451" />
      <feColorMatrix
         id="feColorMatrix3453"
         values="0 0 1 0 0 0 1 0 0 0 1 0 0 0 0 -0.21 -0.72 -0.07 2 0 "
         result="color2"
         in="fbSourceGraphic" />
    </filter>
    <filter
       inkscape:label="Invert"
       inkscape:menu="Color"
       inkscape:menu-tooltip="Blend an image with its hue opposite"
       style="color-interpolation-filters:sRGB;"
       id="filter3355">
      <feColorMatrix
         type="hueRotate"
         values="180"
         result="fbSourceGraphic"
         in="SourceGraphic"
         id="feColorMatrix3357" />
      <feColorMatrix
         values="1 0 0 0 0 0 1 0 0 0 0 0 1 0 0 -0.2125 -0.7154 -0.0721 1 0 "
         in="SourceGraphic"
         result="result1"
         id="feColorMatrix3359" />
      <feColorMatrix
         type="hueRotate"
         values="0"
         id="feColorMatrix3361" />
      <feColorMatrix
         values="1 0 0 0 0 0 1 0 0 0 0 0 1 0 0 0 0 0 1 0 "
         result="result3"
         id="feColorMatrix3363" />
      <feComposite
         in2="result3"
         result="result6"
         operator="atop"
         id="feComposite3365" />
      <feComposite
         in2="result6"
         operator="arithmetic"
         k2="0.5"
         k1="0.5"
         k3="0.5"
         in="result6"
         result="result4"
         id="feComposite3367" />
      <feBlend
         in2="fbSourceGraphic"
         mode="normal"
         result="result2"
         in="result4"
         id="feBlend3369" />
      <feComposite
         in2="result2"
         operator="arithmetic"
         k2="1"
         result="result5"
         id="feComposite3371" />
      <feComposite
         in2="SourceGraphic"
         operator="in"
         result="fbSourceGraphic"
         id="feComposite3373" />
      <feColorMatrix
         result="fbSourceGraphicAlpha"
         in="fbSourceGraphic"
         values="0 0 0 -1 0 0 0 0 -1 0 0 0 0 -1 0 0 0 0 1 0"
         id="feColorMatrix3447" />
      <feColorMatrix
         id="feColorMatrix3449"
         values="0 0 1 0 0 0 1 0 0 0 1 0 0 0 0 -0.21 -0.72 -0.07 2 0 "
         result="fbSourceGraphic"
         in="fbSourceGraphic" />
      <feColorMatrix
         result="fbSourceGraphicAlpha"
         in="fbSourceGraphic"
         values="0 0 0 -1 0 0 0 0 -1 0 0 0 0 -1 0 0 0 0 1 0"
         id="feColorMatrix3455" />
      <feColorMatrix
         id="feColorMatrix3457"
         values="0 0 1 0 0 0 1 0 0 0 1 0 0 0 0 -0.21 -0.72 -0.07 2 0 "
         result="color2"
         in="fbSourceGraphic" />
    </filter>
  </defs>
  <sodipodi:namedview
     pagecolor="#ffffff"
     bordercolor="#666666"
     borderopacity="1"
     objecttolerance="10"
     gridtolerance="10"
     guidetolerance="10"
     inkscape:pageopacity="0"
     inkscape:pageshadow="2"
     inkscape:window-width="1082"
     inkscape:window-height="740"
     id="namedview3490"
     showgrid="false"
     inkscape:zoom="16.107892"
     inkscape:cx="20.402179"
     inkscape:cy="25.864322"
     inkscape:window-x="78"
     inkscape:window-y="11"
     inkscape:window-maximized="0"
     inkscape:current-layer="svg3484" />
  <title
     id="title3486">heart</title>
  <path
     d="m 21.684943,0.77085155 c -2.301912,0 -4.283489,1.77136335 -5.20138,3.62171345 -0.918573,-1.8503501 -2.900149,-3.62171345 -5.202747,-3.62171345 -3.1739426,0 -5.7496483,2.43691975 -5.7496483,5.43904375 0,6.1071917 6.5135303,7.7082807 10.9523953,13.7461957 4.195877,-6.000364 10.951029,-7.83388 10.951029,-13.7461957 0,-3.002124 -2.575705,-5.43904375 -5.749649,-5.43904375 z"
     id="path3488"
     inkscape:connector-curvature="0"
     style="stroke-width:5;stroke-miterlimit:4;stroke-dasharray:none;filter:url(#filter3335)" />
  <path
     inkscape:connector-curvature="0"
     d="m 12.648342,17.998244 c -1.632977,0 -2.956508,1.336902 -2.956508,2.986062 0,1.411981 0.970227,2.594888 2.27454,2.905865 l -0.489301,6.906762 c -0.03302,0.468386 0.38336,0.851455 0.925386,0.851455 l 0.492751,0 c 0.542026,0 0.958401,-0.383069 0.925386,-0.851455 l -0.489301,-6.906762 c 1.303818,-0.310977 2.27454,-1.493884 2.27454,-2.905865 0,-1.64916 -1.32353,-2.986062 -2.956507,-2.986062 z m 9.937313,0 -0.821416,4.265804 -0.61594,0 -0.410462,-4.265804 -0.41046,0 -0.410462,4.265804 -0.615939,0 -0.821417,-4.265804 -0.410462,0 0,5.545544 c 0,0.235473 0.220753,0.426581 0.492751,0.426581 l 1.283124,0 -0.483879,6.826991 c -0.03302,0.468385 0.383358,0.851454 0.925384,0.851454 l 0.492752,0 c 0.542027,0 0.958401,-0.383069 0.925388,-0.851454 l -0.483883,-6.826991 1.283125,0 c 0.271998,0 0.492751,-0.191108 0.492751,-0.426581 l 0,-5.545544 -0.410463,0 z"
     id="path3562"
     style="filter:url(#filter3355)" />
  <path
     style="fill:#ffffff;stroke-width:5;stroke-miterlimit:4;stroke-dasharray:none"
     d="m 19.805868,31.531462 c -0.1983,-0.103413 -0.321688,-0.237492 -0.408134,-0.443497 -0.03671,-0.08747 0.02925,-1.340586 0.187886,-3.569678 0.134446,-1.889187 0.244665,-3.455838 0.244929,-3.481447 2.48e-4,-0.02561 -0.319232,-0.04656 -0.709993,-0.04656 -0.661454,0 -0.722492,-0.01033 -0.884659,-0.149777 L 18.061711,23.690725 18.030671,20.879863 17.99963,18.069 17.651997,18.468783 c -0.191199,0.219881 -0.531431,0.642405 -0.756073,0.938944 l -0.408439,0.53916 -0.609394,-0.756445 c -0.852758,-1.058534 -2.372577,-2.56 -3.869313,-3.822588 C 11.30881,14.777389 10.344997,13.963043 9.8669707,13.558197 6.7052096,10.880465 5.5512137,8.93189 5.5527506,6.2734367 5.5536405,4.7340408 6.0809324,3.4661019 7.1453704,2.4437849 7.9009162,1.7181368 8.6289351,1.2984202 9.6807266,0.98210432 10.174845,0.83350307 10.347149,0.81342446 11.170679,0.80847954 c 0.812827,-0.004881 0.990418,0.0129113 1.396831,0.13994074 1.430274,0.44704972 2.767471,1.51924582 3.590236,2.87873322 0.159417,0.2634112 0.304276,0.47992 0.321907,0.4811306 0.01763,0.00121 0.127215,-0.1584344 0.24352,-0.3547667 0.848064,-1.4315986 2.220383,-2.5566646 3.66659,-3.00597325 0.665517,-0.20676348 2.022967,-0.20667681 2.789512,1.7811e-4 1.638647,0.44219464 2.995982,1.52351944 3.714585,2.95923414 0.77627,1.5509298 0.71379,3.5428092 -0.167492,5.3396004 -0.632097,1.2887452 -1.709729,2.5291652 -3.620546,4.1674672 -0.571924,0.490359 -1.521324,1.303627 -2.109777,1.807262 -0.588453,0.503635 -1.485951,1.320781 -1.994439,1.81588 l -0.924523,0.90018 0.206826,0.03104 0.206825,0.03104 0.405911,2.126287 0.405911,2.126287 0.294095,0 c 0.255162,0 0.297865,-0.01849 0.322571,-0.139683 0.01566,-0.07683 0.100895,-0.935877 0.189406,-1.909003 0.218522,-2.402535 0.188507,-2.246044 0.426344,-2.222891 0.233869,0.02277 0.203029,-0.146092 0.448506,2.455697 l 0.171328,1.81588 0.299191,0 c 0.259622,0 0.303324,-0.01847 0.330446,-0.139683 0.01719,-0.07683 0.199862,-1.016261 0.405934,-2.087632 0.206073,-1.071371 0.389745,-1.972327 0.40816,-2.002124 0.01842,-0.0298 0.115644,-0.05418 0.216063,-0.05418 l 0.18258,0 0,2.848866 c 0,2.711285 -0.0057,2.855943 -0.118542,2.995426 -0.110779,0.136961 -0.167705,0.147917 -0.86914,0.16728 l -0.750596,0.02072 3e-5,0.227605 c 1.7e-5,0.125184 0.09778,1.582532 0.217255,3.238553 0.119473,1.65602 0.217237,3.153845 0.217254,3.328501 3.4e-5,0.355031 -0.134568,0.582707 -0.436938,0.739069 -0.244801,0.126591 -1.205985,0.12464 -1.450635,-0.0029 l 0,-10e-7 z"
     id="path3459"
     inkscape:connector-curvature="0" />
  <path
     style="fill:#ffffff;stroke-width:5;stroke-miterlimit:4;stroke-dasharray:none"
     d="m 11.977737,31.553839 c -0.201899,-0.111666 -0.412967,-0.321415 -0.468801,-0.465874 -0.03118,-0.08068 0.04603,-1.5137 0.19235,-3.569678 0.134447,-1.889187 0.244665,-3.477218 0.244929,-3.528957 2.92e-4,-0.0567 -0.120069,-0.136886 -0.30298,-0.201851 -0.479165,-0.170184 -1.029324,-0.574352 -1.334583,-0.980437 -0.3939641,-0.524088 -0.5475172,-0.9621 -0.582904,-1.662739 -0.036151,-0.715773 0.086555,-1.224737 0.418126,-1.734317 0.790768,-1.215304 2.208572,-1.707117 3.53845,-1.22743 1.37692,0.496654 2.208066,2.095799 1.834568,3.529753 -0.143766,0.551957 -0.385294,0.967006 -0.809696,1.391408 -0.35569,0.35569 -1.024919,0.762205 -1.255026,0.76235 -0.111601,7.1e-5 -0.103157,0.217266 0.140002,3.600769 0.119011,1.65602 0.216515,3.153845 0.216675,3.328501 3.23e-4,0.355058 -0.134125,0.582613 -0.436678,0.739069 -0.212877,0.110082 -1.20552,0.123917 -1.394432,0.01943 z"
     id="path3461"
     inkscape:connector-curvature="0" />
</svg>
