<?xml version="1.0" encoding="UTF-8" standalone="no"?>
<!-- Generated by IcoMoon.io -->

<svg
   xmlns:dc="http://purl.org/dc/elements/1.1/"
   xmlns:cc="http://creativecommons.org/ns#"
   xmlns:rdf="http://www.w3.org/1999/02/22-rdf-syntax-ns#"
   xmlns:svg="http://www.w3.org/2000/svg"
   xmlns="http://www.w3.org/2000/svg"
   xmlns:sodipodi="http://sodipodi.sourceforge.net/DTD/sodipodi-0.dtd"
   xmlns:inkscape="http://www.inkscape.org/namespaces/inkscape"
   version="1.1"
   width="32"
   height="32"
   viewBox="0 0 32 32"
   id="svg3484"
   inkscape:version="0.91 r13725"
   sodipodi:docname="icon-dietafarma-logo.svg">
  <metadata
     id="metadata3494">
    <rdf:RDF>
      <cc:Work
         rdf:about="">
        <dc:format>image/svg+xml</dc:format>
        <dc:type
           rdf:resource="http://purl.org/dc/dcmitype/StillImage" />
        <dc:title>heart</dc:title>
      </cc:Work>
    </rdf:RDF>
  </metadata>
  <defs
     id="defs3492" />
  <sodipodi:namedview
     pagecolor="#ffffff"
     bordercolor="#666666"
     borderopacity="1"
     objecttolerance="10"
     gridtolerance="10"
     guidetolerance="10"
     inkscape:pageopacity="0"
     inkscape:pageshadow="2"
     inkscape:window-width="1082"
     inkscape:window-height="740"
     id="namedview3490"
     showgrid="false"
     inkscape:zoom="11.39"
     inkscape:cx="16"
     inkscape:cy="16"
     inkscape:window-x="78"
     inkscape:window-y="11"
     inkscape:window-maximized="0"
     inkscape:current-layer="svg3484" />
  <title
     id="title3486">heart</title>
  <path
     d="m 21.684943,0.77085155 c -2.301912,0 -4.283489,1.77136335 -5.20138,3.62171345 -0.918573,-1.8503501 -2.900149,-3.62171345 -5.202747,-3.62171345 -3.1739426,0 -5.7496483,2.43691975 -5.7496483,5.43904375 0,6.1071917 6.5135303,7.7082807 10.9523953,13.7461957 4.195877,-6.000364 10.951029,-7.83388 10.951029,-13.7461957 0,-3.002124 -2.575705,-5.43904375 -5.749649,-5.43904375 z"
     id="path3488"
     inkscape:connector-curvature="0"
     style="stroke-width:5;stroke-miterlimit:4;stroke-dasharray:none" />
  <path
     inkscape:connector-curvature="0"
     d="m 12.648342,17.998244 c -1.632977,0 -2.956508,1.336902 -2.956508,2.986062 0,1.411981 0.970227,2.594888 2.27454,2.905865 l -0.489301,6.906762 c -0.03302,0.468386 0.38336,0.851455 0.925386,0.851455 l 0.492751,0 c 0.542026,0 0.958401,-0.383069 0.925386,-0.851455 l -0.489301,-6.906762 c 1.303818,-0.310977 2.27454,-1.493884 2.27454,-2.905865 0,-1.64916 -1.32353,-2.986062 -2.956507,-2.986062 z m 9.937313,0 -0.821416,4.265804 -0.61594,0 -0.410462,-4.265804 -0.41046,0 -0.410462,4.265804 -0.615939,0 -0.821417,-4.265804 -0.410462,0 0,5.545544 c 0,0.235473 0.220753,0.426581 0.492751,0.426581 l 1.283124,0 -0.483879,6.826991 c -0.03302,0.468385 0.383358,0.851454 0.925384,0.851454 l 0.492752,0 c 0.542027,0 0.958401,-0.383069 0.925388,-0.851454 l -0.483883,-6.826991 1.283125,0 c 0.271998,0 0.492751,-0.191108 0.492751,-0.426581 l 0,-5.545544 -0.410463,0 z"
     id="path3562" />
</svg>
